HIERARCHY
ROOT root
{
	OFFSET 0.000000 0.000000 0.000000
	CHANNELS 6 Xposition Yposition Zposition Zrotation Yrotation Xrotation
	JOINT lhip
	{
		OFFSET 0.058581 -0.082280 -0.017664
		CHANNELS 3 Zrotation Yrotation Xrotation
		JOINT lknee
		{
			OFFSET 0.043451 -0.386469 0.008037
			CHANNELS 3 Zrotation Yrotation Xrotation
			JOINT lankle
			{
				OFFSET -0.014790 -0.426874 -0.037428
				CHANNELS 3 Zrotation Yrotation Xrotation
				JOINT ltoe
				{
					OFFSET 0.041054 -0.060286 0.122042
					CHANNELS 3 Zrotation Yrotation Xrotation
					End Site
					{
						OFFSET 0.000000 0.000000 0.000000
					}
				}
			}
		}
	}
	JOINT rhip
	{
		OFFSET -0.060310 -0.090513 -0.013543
		CHANNELS 3 Zrotation Yrotation Xrotation
		JOINT rknee
		{
			OFFSET -0.043257 -0.383688 -0.004843
			CHANNELS 3 Zrotation Yrotation Xrotation
			JOINT rankle
			{
				OFFSET 0.019056 -0.420046 -0.034562
				CHANNELS 3 Zrotation Yrotation Xrotation
				JOINT rtoe
				{
					OFFSET -0.034840 -0.062106 0.130323
					CHANNELS 3 Zrotation Yrotation Xrotation
					End Site
					{
						OFFSET 0.000000 0.000000 0.000000
					}
				}
			}
		}
	}
	JOINT lowerback
	{
		OFFSET 0.004439 0.124404 -0.038385
		CHANNELS 3 Zrotation Yrotation Xrotation
		JOINT upperback
		{
			OFFSET 0.004488 0.137956 0.026820
			CHANNELS 3 Zrotation Yrotation Xrotation
			JOINT chest
			{
				OFFSET -0.002265 0.056032 0.002855
				CHANNELS 3 Zrotation Yrotation Xrotation
				JOINT lowerneck
				{
					OFFSET -0.013390 0.211636 -0.033468
					CHANNELS 3 Zrotation Yrotation Xrotation
					JOINT upperneck
					{
						OFFSET 0.010113 0.088937 0.050410
						CHANNELS 3 Zrotation Yrotation Xrotation
						End Site
						{
							OFFSET 0.000000 0.000000 0.000000
						}
					}
				}
				JOINT lclavicle
				{
					OFFSET 0.071702 0.114000 -0.018898
					CHANNELS 3 Zrotation Yrotation Xrotation
					JOINT lshoulder
					{
						OFFSET 0.122921 0.045205 -0.019046
						CHANNELS 3 Zrotation Yrotation Xrotation
						JOINT lelbow
						{
							OFFSET 0.255332 -0.015649 -0.022946
							CHANNELS 3 Zrotation Yrotation Xrotation
							JOINT lwrist
							{
								OFFSET 0.265709 0.012698 -0.007375
								CHANNELS 3 Zrotation Yrotation Xrotation
								End Site
								{
									OFFSET 0.000000 0.000000 0.000000
								}
							}
						}
					}
				}
				JOINT rclavicle
				{
					OFFSET -0.082954 0.112472 -0.023707
					CHANNELS 3 Zrotation Yrotation Xrotation
					JOINT rshoulder
					{
						OFFSET -0.113228 0.046853 -0.008472
						CHANNELS 3 Zrotation Yrotation Xrotation
						JOINT relbow
						{
							OFFSET -0.260127 -0.014369 -0.031269
							CHANNELS 3 Zrotation Yrotation Xrotation
							JOINT rwrist
							{
								OFFSET -0.269108 0.006794 -0.006027
								CHANNELS 3 Zrotation Yrotation Xrotation
								End Site
								{
									OFFSET 0.000000 0.000000 0.000000
								}
							}
						}
					}
				}
			}
		}
	}
}
MOTION
Frames: 13
Frame Time: 0.033333
0.886619 0.670607 1.157962 -81.630438 3.510391 91.399438 5.169780 -0.763997 2.228912 -8.614764 -9.734275 46.444016 -1.736280 6.814608 6.843901 0.000000 -0.000000 0.000000 2.390312 5.908441 -26.662480 2.186092 -7.109211 26.237840 -3.431959 -7.280461 -9.118944 0.000000 -0.000000 0.000000 2.343872 -4.674661 14.439547 4.472318 -1.815470 6.727575 1.702333 -2.859528 0.500724 -0.195567 -1.094846 4.977949 4.302506 -3.654650 4.625925 -20.253120 -2.570172 6.517920 -68.406786 -6.373545 10.572375 13.791294 -38.949267 23.650673 -5.551646 3.954384 1.259438 20.007036 1.682802 7.289689 67.266529 0.352477 3.402281 -16.738968 15.352482 4.399193 4.394959 -7.315480 -6.110672 
0.854639 0.673179 1.165104 -82.725660 3.138949 90.453605 4.056167 -2.733174 -2.309907 -8.563497 -5.594377 52.652576 -0.026876 8.789036 2.982677 0.000000 -0.000000 0.000000 3.691953 6.323276 -22.723995 1.937275 -5.275836 25.489898 -3.897652 -8.077493 -11.084311 0.000000 -0.000000 0.000000 2.141084 -2.875234 14.786006 4.386480 -1.709803 5.860358 1.400264 -2.300440 1.156801 0.238440 -1.538452 4.207367 4.078083 -4.381490 5.355556 -20.221660 -1.543717 6.082441 -67.924473 -4.689009 10.206369 13.145181 -38.174504 23.674069 -2.505528 3.233268 0.685134 20.040596 1.803326 6.115194 66.227444 1.952137 4.467049 -17.140704 17.748005 4.542492 1.360855 -6.883575 -5.582524 
0.823457 0.675268 1.171918 -83.657247 2.389128 89.334549 2.837353 -4.096420 -7.218793 -8.607891 -3.186077 56.875006 1.342987 9.047496 -0.875705 0.000000 -0.000000 0.000000 4.511907 5.920051 -18.513677 1.639655 -3.288311 24.488021 -3.865093 -8.344936 -12.912391 0.000000 -0.000000 0.000000 1.434014 -0.770354 15.220807 4.313750 -1.735698 5.194126 1.278572 -1.780975 1.819970 0.848838 -1.737471 3.386011 3.905611 -5.469955 6.084032 -20.139775 -0.703385 5.615872 -67.551770 -3.422134 9.805172 13.164856 -37.338017 22.987095 -1.620102 3.419277 -0.558413 20.265964 1.960129 5.055828 64.973916 4.114827 5.275515 -17.650261 20.162043 3.842510 0.671913 -6.913989 -6.133900 
0.792609 0.677242 1.177526 -84.479450 1.737203 87.983021 2.024409 -4.911475 -11.953616 -8.459641 -1.948948 58.379512 2.418398 9.066007 -4.668485 0.000000 -0.000000 0.000000 5.170388 4.957296 -13.843721 1.464210 -1.538518 22.983974 -3.831060 -8.120979 -14.595594 0.000000 -0.000000 0.000000 0.802157 1.227247 15.887973 4.113884 -1.861945 4.585970 1.287092 -1.116927 2.264904 1.348151 -1.829807 3.248877 3.845942 -6.339110 6.712091 -19.713721 -0.210263 5.446139 -67.713448 -2.194606 9.057568 13.966688 -36.588774 21.711181 -0.896618 3.869781 -1.527693 20.044135 2.749988 4.351004 64.333753 6.083414 5.697093 -18.588918 22.867899 2.956219 0.820367 -6.441252 -7.739118 
0.762411 0.678924 1.181763 -85.294973 1.140055 86.822124 1.632692 -6.413319 -16.738160 -7.796051 -0.517295 57.607629 3.077796 10.074652 -8.142497 0.000000 -0.000000 0.000000 5.528538 3.966549 -9.311515 1.341562 0.067077 21.230078 -3.562752 -7.699202 -16.069324 0.000000 -0.000000 0.000000 0.300073 3.375654 16.569828 3.907879 -1.982436 3.773328 1.397530 -0.517728 2.661491 1.643064 -1.898330 3.311272 3.922228 -7.021964 7.273863 -19.181432 -0.043039 5.374325 -67.897993 -0.905887 8.309211 14.412644 -35.873929 20.925650 -0.426962 4.202542 -1.992287 19.436683 3.734551 3.487770 64.033237 7.703193 6.080503 -19.651995 25.537952 2.047287 0.805353 -6.287418 -8.835794 
0.733170 0.680424 1.184850 -86.486031 0.434773 86.078368 1.497058 -7.470339 -21.518130 -6.962274 0.561192 54.334929 4.490720 10.922803 -9.893330 0.000000 -0.000000 0.000000 5.365437 2.952436 -5.425342 1.392816 1.790408 19.569791 -3.305312 -6.929411 -17.192977 0.000000 -0.000000 0.000000 -0.191475 5.352358 17.338395 3.434696 -1.817341 2.223178 1.468832 0.098239 3.338646 1.968283 -2.259240 3.709426 4.087468 -7.801722 7.785864 -18.740359 0.471477 4.970331 -67.594491 0.414619 7.731243 14.318155 -35.117440 21.147037 -0.554311 4.310406 -2.067465 18.723691 4.493532 3.031552 63.973866 9.702303 6.538691 -20.393330 28.139132 1.704185 0.400511 -5.623477 -9.384715 
0.703672 0.681758 1.186064 -87.604139 -0.000451 85.155738 1.853703 -8.019541 -25.390253 -5.722186 1.132539 48.987053 4.864959 11.086989 -11.648219 0.000000 -0.000000 0.000000 5.069374 1.312271 -1.182795 1.399288 3.101752 17.627042 -2.880537 -5.528561 -18.573510 0.000000 -0.000000 0.000000 -0.288641 6.958710 17.918445 2.862688 -1.995559 1.963912 1.278426 0.950967 3.418029 2.544830 -1.970067 3.990304 4.311185 -8.736583 8.649275 -18.071246 0.746596 4.562640 -67.457088 1.744803 6.881524 14.303322 -34.581239 21.309883 -0.938533 4.428021 -2.078624 18.041779 5.422313 2.642004 64.145556 11.876651 6.706955 -21.112839 30.620250 2.099246 0.290558 -4.700014 -8.566436 
0.675267 0.682449 1.185999 -89.077247 -0.484008 84.640249 2.316061 -8.003887 -28.569969 -4.875591 1.246043 41.725058 5.546348 10.830318 -12.050396 0.000000 -0.000000 0.000000 4.246396 0.179162 2.340555 1.794255 4.436414 16.039886 -2.613666 -4.332632 -19.858818 0.000000 -0.000000 0.000000 -0.440288 8.381479 18.317456 2.258985 -1.892156 1.927996 1.085427 1.727028 3.295567 2.990312 -1.765452 3.980939 4.096527 -9.562571 9.355712 -17.851567 1.053485 4.273291 -66.966711 2.949306 6.177788 14.300626 -34.131671 21.526418 -1.110541 4.445920 -1.967982 17.469408 6.464987 2.288090 64.361226 13.757281 7.150372 -21.920240 33.075450 2.237113 0.019237 -4.205521 -8.101756 
0.645853 0.684386 1.184436 -90.683720 -0.733727 84.109828 3.037637 -6.854135 -30.656266 -5.298362 -0.092429 33.576725 6.215282 9.903664 -11.744855 0.000000 -0.000000 0.000000 3.565001 -1.045589 5.912540 1.945820 5.477470 14.581738 -2.282591 -2.512991 -21.044749 0.000000 -0.000000 0.000000 -0.834618 9.735226 18.546961 2.127647 -1.578135 1.575238 0.725942 2.272207 4.153889 4.297669 -0.721493 3.935286 3.289008 -11.095452 8.855890 -17.926342 2.258017 3.689534 -65.377512 3.550473 9.212382 13.952991 -33.705915 20.727349 0.815470 5.943855 -3.713834 17.886055 6.354106 0.940532 64.163173 16.046796 10.438477 -22.799805 34.404226 1.425251 -0.701106 -3.304731 -7.284214 
0.615683 0.685370 1.181334 -91.921368 -0.915503 83.732279 3.697432 -6.398247 -32.045925 -5.269109 -1.748231 25.823658 5.320196 7.934459 -10.575360 0.000000 -0.000000 0.000000 2.621348 -2.175391 9.337988 2.311479 6.533306 13.217350 -2.039575 -1.133328 -21.860569 0.000000 -0.000000 0.000000 -1.070817 10.765015 18.598047 1.716604 -1.628801 1.861725 0.653037 2.635458 4.066085 4.602121 0.070941 3.816893 3.113469 -11.519161 9.082873 -17.799093 2.562611 3.618508 -65.015596 4.582446 8.843175 13.983839 -33.264050 20.312265 0.657545 6.100865 -3.630194 17.629514 7.104501 0.742373 64.460910 17.689572 11.050708 -22.898938 36.834968 1.664641 -0.478853 -2.842873 -6.947572 
0.584702 0.685877 1.177463 -93.250448 -1.019770 83.506214 4.274179 -5.879898 -32.939443 -4.658647 -2.514373 20.123144 4.815232 6.564862 -10.088284 0.000000 -0.000000 0.000000 1.693578 -2.978574 12.125927 2.457551 7.291182 12.834193 -1.406655 -0.316671 -22.256598 0.000000 -0.000000 0.000000 -1.269936 11.658910 18.391416 1.278962 -1.575776 2.418687 0.517273 3.016141 3.897606 4.715783 0.398597 3.714876 3.253864 -11.822735 8.818594 -17.777299 2.461447 3.692755 -64.664656 5.510764 8.311670 14.126314 -32.811551 20.071936 -0.082511 6.447267 -3.546953 17.369105 8.020797 0.733734 65.103176 18.701142 11.595732 -23.266677 39.092748 1.679498 0.030065 -2.411340 -6.823564 
0.552485 0.686133 1.174121 -94.860461 -0.945154 83.391882 4.909659 -5.153296 -33.263016 -4.342213 -2.514740 17.190053 4.447593 5.948987 -9.414257 0.000000 -0.000000 0.000000 1.025728 -3.311042 14.428497 2.511911 8.193514 13.111461 -0.997608 0.958904 -22.353910 0.000000 -0.000000 0.000000 -1.541951 12.458610 17.981376 1.004791 -1.326788 3.104836 0.413887 3.381248 3.745087 4.960334 0.624641 3.468019 3.208461 -12.248845 8.647151 -17.997642 2.135140 3.383616 -64.435147 6.322628 8.158581 14.275772 -31.774634 19.865736 -0.299916 6.531010 -2.885326 17.489550 8.895682 0.831111 65.500945 19.540076 12.187452 -23.125608 40.820022 1.960865 -0.072984 -1.816312 -7.027041 
0.518804 0.685644 1.172576 -96.483165 -0.866306 83.633392 5.472782 -4.924800 -33.259683 -4.491507 -1.373392 17.273831 4.108086 6.238774 -8.950697 0.000000 -0.000000 0.000000 0.207416 -3.431117 15.955680 2.574298 9.204320 14.114671 0.665685 2.661081 -20.976635 0.000000 -0.000000 0.000000 -2.004164 13.353108 17.082423 0.891940 -1.037063 3.765441 0.255713 3.703796 3.550828 5.114388 0.973596 3.047919 3.245919 -12.283211 8.613264 -18.264610 1.790191 3.235306 -64.447098 6.678290 8.197004 14.595451 -30.705025 19.779476 -0.513108 6.735520 -1.992155 18.141852 9.177269 0.926652 65.809205 20.014931 12.746353 -22.855551 41.759502 2.796379 0.448743 -1.557701 -6.346497 
